
        <svg xmlns="http://www.w3.org/2000/svg" xmlns:xlink="http://www.w3.org/1999/xlink" version="1.1" width="3214.285714285714" height="2456.881614410723" viewBox="0 0 3214.285714285714 2456.881614410723">
			
			<g transform="scale(10.714285714285717) translate(10, 10)">
				<defs id="SvgjsDefs1013"/><g id="SvgjsG1014" featureKey="mugSzh-0" transform="matrix(1.811616976321604,0,0,1.811616976321604,49.918251056084856,-29.264859419203614)" fill="#000"><g xmlns="http://www.w3.org/2000/svg"><rect x="16.672" y="34.959" width="7.777" height="2"/></g><g xmlns="http://www.w3.org/2000/svg"><rect x="75.361" y="34.956" width="7.776" height="2"/></g><g xmlns="http://www.w3.org/2000/svg"><rect x="70.903" y="17.644" transform="matrix(-0.7071 -0.7071 0.7071 -0.7071 107.5195 87.6049)" width="2" height="7.781"/></g><g xmlns="http://www.w3.org/2000/svg"><rect x="24.019" y="20.536" transform="matrix(-0.7072 -0.707 0.707 -0.7072 32.4176 56.498)" width="7.777" height="2"/></g><path xmlns="http://www.w3.org/2000/svg" d="M59.091,25.848c-3.974,0-7.353,2.56-8.598,6.115h-1.035c-1.245-3.556-4.624-6.115-8.599-6.115  c-5.026,0-9.115,4.09-9.115,9.115c0,2.626,1.123,4.99,2.906,6.655h-0.01l14.6,14.6h1.439l14.358-14.361  c1.937-1.673,3.169-4.14,3.169-6.894C68.207,29.938,64.116,25.848,59.091,25.848z"/><g xmlns="http://www.w3.org/2000/svg"><rect x="49" y="16.154" width="2" height="7.777"/></g><g xmlns="http://www.w3.org/2000/svg"><path d="M71.777,51.059c-0.164,0.057-0.325,0.117-0.488,0.178C71.452,51.176,71.614,51.114,71.777,51.059z"/><path d="M30.919,52.146c-1.584-0.693-3.195-1.295-4.843-1.726c-1.728-0.412-3.577-0.65-5.552-0.688H9.981v5h11.017   c4.386,0,9.396,1.664,14.041,4.084c2.737,1.428,7.786,4.515,7.786,4.515C40.002,58.855,36.14,54.668,30.919,52.146z"/></g><path xmlns="http://www.w3.org/2000/svg" d="M49.998,84.734c-5.508,0-10.858-2.648-16.034-5.213c-4.912-2.433-9.553-4.729-13.966-4.729H9.981v-5h10.017  c5.583,0,10.974,2.668,16.185,5.25c4.875,2.412,9.478,4.691,13.815,4.691c4.311,0,8.859-2.267,13.679-4.664  c5.214-2.596,10.604-5.277,16.273-5.277c0.02,0,0.037,0,0.056,0h9.999v5H79.998c-0.016,0-0.025,0-0.041,0  c-4.501,0-9.143,2.311-14.055,4.754C60.78,82.098,55.482,84.734,49.998,84.734z"/><path xmlns="http://www.w3.org/2000/svg" d="M49.998,74.793c-5.508,0-10.858-2.648-16.034-5.213c-4.912-2.434-9.553-4.729-13.966-4.729H9.981v-5h10.017  c5.583,0,10.974,2.668,16.185,5.25c4.875,2.412,9.478,4.691,13.815,4.691c4.311,0,8.859-2.266,13.679-4.664  c5.214-2.596,10.604-5.277,16.273-5.277c0.02,0,0.037,0,0.056,0h9.999v5H79.998c-0.016,0-0.025,0-0.04,0  c-4.502,0-9.144,2.31-14.056,4.754C60.78,72.155,55.482,74.793,49.998,74.793z"/><path xmlns="http://www.w3.org/2000/svg" d="M57.175,63.332c0,0,5.05-3.087,7.786-4.514c4.646-2.422,9.655-4.084,14.041-4.084H90.02v-5H79.477  c-1.976,0.037-3.824,0.275-5.553,0.688c-1.646,0.43-3.259,1.031-4.843,1.727C63.859,54.668,59.998,58.855,57.175,63.332z"/></g><g id="SvgjsG1015" featureKey="PPkF4s-0" transform="matrix(2.3505709492729783,0,0,2.3505709492729783,-3.666889985945312,133.14036248336035)" fill="#000"><path d="M4.7 20 l-3.14 0 l0 -15.08 l10.08 8.92 l0 -8.44 l3.16 0 l0 15.06 l-10.1 -8.78 l0 8.32 z M17.919999999999998 15.54 l0 -6.5 l3.02 0 l0 6.5 q0 1.18 0.59 1.69 t1.55 0.51 q0.84 0 1.5 -0.65 t0.6 -2.23 l0 -5.82 l3 0 l0 10.96 l-3 0 l0 -0.94 q-0.54 0.56 -1.31 0.87 t-1.63 0.31 q-4.32 0 -4.32 -4.7 z M34.8 16.08 q0 0.7 0.24 1.17 t1.12 0.47 q0.4 0 0.76 -0.04 l0 2.52 q-0.72 0.08 -1.34 0.08 q-1.28 0 -2.07 -0.21 t-1.23 -0.81 t-0.44 -1.72 l0 -6.1 l-1.34 0 l0 -2.62 l1.34 0 l0 -2.94 l2.96 0 l0 2.94 l2.2 0 l0 2.62 l-2.2 0 l0 4.64 z M44.54 11.87 q-0.86 0.21 -1.58 0.99 t-0.72 2.28 l0 4.86 l-2.98 0 l0 -11 l2.98 0 l0 1.46 q0.74 -0.98 1.81 -1.33 t1.95 -0.33 l0 2.92 q-0.6 -0.06 -1.46 0.15 z M50.580000000000005 7.369999999999999 q-0.48 0.47 -1.16 0.47 q-0.7 0 -1.19 -0.47 t-0.49 -1.15 q0 -0.66 0.49 -1.13 t1.19 -0.47 q0.68 0 1.16 0.47 t0.48 1.13 q0 0.68 -0.48 1.15 z M47.92000000000001 9.02 l3 0 l0 10.98 l-3 0 l0 -10.98 z M64.37 11.22 q-0.51 0.8 -1.33 1.14 q1 0.34 1.72 1.3 t0.72 2.1 q0 2.26 -1.44 3.25 t-3.68 0.99 l-6.32 0 l0 -14.62 l6.08 0 q4.76 0 4.76 4.06 q0 0.98 -0.51 1.78 z M60.18000000000001 11.18 q0.78 0 1.15 -0.48 t0.37 -1.14 q0 -0.58 -0.44 -1.01 t-1.06 -0.43 l-2.98 0 l0 3.06 l2.96 0 z M61.80000000000001 16.78 q0.52 -0.48 0.52 -1.18 t-0.52 -1.18 t-1.5 -0.48 l-3.08 0 l0 3.32 l3.14 0 q0.92 0 1.44 -0.48 z M67.92 15.54 l0 -6.5 l3.02 0 l0 6.5 q0 1.18 0.59 1.69 t1.55 0.51 q0.84 0 1.5 -0.65 t0.6 -2.23 l0 -5.82 l3 0 l0 10.96 l-3 0 l0 -0.94 q-0.54 0.56 -1.31 0.87 t-1.63 0.31 q-4.32 0 -4.32 -4.7 z M89.44 18.9 q-0.38 0.52 -1.31 0.93 t-2.03 0.41 q-1.7 0 -2.95 -0.76 t-1.91 -2.07 t-0.66 -2.91 t0.66 -2.91 t1.91 -2.07 t2.95 -0.76 q1.14 0 2.01 0.39 t1.33 0.99 l0 -5.26 l2.96 0 l0 15.12 l-2.96 0 l0 -1.1 z M88.74 12.25 q-0.82 -0.87 -2.2 -0.87 q-1.4 0 -2.21 0.87 t-0.81 2.25 q0 1.34 0.83 2.22 t2.19 0.88 q1.4 0 2.21 -0.83 t0.81 -2.27 q0 -1.38 -0.82 -2.25 z M103.7 18.9 q-0.38 0.52 -1.31 0.93 t-2.03 0.41 q-1.7 0 -2.95 -0.76 t-1.91 -2.07 t-0.66 -2.91 t0.66 -2.91 t1.91 -2.07 t2.95 -0.76 q1.14 0 2.01 0.39 t1.33 0.99 l0 -5.26 l2.96 0 l0 15.12 l-2.96 0 l0 -1.1 z M103 12.25 q-0.82 -0.87 -2.2 -0.87 q-1.4 0 -2.21 0.87 t-0.81 2.25 q0 1.34 0.83 2.22 t2.19 0.88 q1.4 0 2.21 -0.83 t0.81 -2.27 q0 -1.38 -0.82 -2.25 z M111.24000000000001 24.12 l1.9 -4.52 l-4.72 -10.56 l3.46 0 l2.78 7 l2.56 -7 l3.46 0 l-6.14 15.08 l-3.3 0 z"/></g><g id="SvgjsG1016" featureKey="uwAHB0-0" transform="matrix(0.625601519270141,0,0,0.625601519270141,34.78633294224121,196.57170455739737)" fill="#000"><path d="M3.26 5.84 l0 6.24 l7.92 0 l0 -6.24 l1.32 0 l0 14.16 l-1.32 0 l0 -6.72 l-7.92 0 l0 6.72 l-1.32 0 l0 -14.16 l1.32 0 z M35.264 5.84 l0 1.2 l-7.34 0 l0 5.04 l6.88 0 l0 1.2 l-6.88 0 l0 5.52 l7.66 0 l0 1.2 l-8.98 0 l0 -14.16 l8.66 0 z M50.348000000000006 15.04 l6.5 0 l-3.2 -7.76 z M54.388000000000005 5.84 l5.96 14.16 l-1.48 0 l-1.54 -3.76 l-7.5 0 l-1.6 3.76 l-1.38 0 l6.18 -14.16 l1.36 0 z M73.932 5.84 l0 12.96 l6.6 0 l0 1.2 l-7.92 0 l0 -14.16 l1.32 0 z M102.136 5.84 l0 1.2 l-4.84 0 l0 12.96 l-1.32 0 l0 -12.96 l-4.84 0 l0 -1.2 l11 0 z M115.86 5.84 l0 6.24 l7.92 0 l0 -6.24 l1.32 0 l0 14.16 l-1.32 0 l0 -6.72 l-7.92 0 l0 6.72 l-1.32 0 l0 -14.16 l1.32 0 z M155.948 5.84 l0 14.16 l-1.32 0 l0 -14.16 l1.32 0 z M174.092 5.48 q2.46 0 3.86 1.78 l-1.14 0.82 q-1.04 -1.4 -2.76 -1.4 q-1.4 0 -2.27 0.72 t-0.91 1.96 q0 1.08 0.66 1.75 t2.3 1.13 q2.16 0.64 2.88 1.13 t1.09 1.21 t0.37 1.8 q0 1.72 -1.23 2.83 t-3.17 1.15 q-3.06 0 -4.6 -2.14 l1.26 -0.84 q1.06 1.76 3.24 1.78 q1.42 0 2.3 -0.79 t0.88 -1.99 q0 -0.7 -0.25 -1.15 t-0.76 -0.78 t-1.3 -0.6 t-1.85 -0.63 q-1.6 -0.52 -2.37 -1.46 t-0.77 -2.4 q0 -1.72 1.29 -2.8 t3.25 -1.08 z M206.34000000000003 5.84 l3.52 12.54 l0.04 0 l3.58 -12.54 l1.68 0 l3.58 12.54 l0.04 0 l3.52 -12.54 l1.36 0 l-4.12 14.14 l-0.02 0.02 l-1.6 0 l-3.58 -12.6 l-0.04 0 l-3.58 12.6 l-1.62 0 l-4.12 -14.16 l1.36 0 z M244.58400000000003 5.84 l0 1.2 l-7.34 0 l0 5.04 l6.88 0 l0 1.2 l-6.88 0 l0 5.52 l7.66 0 l0 1.2 l-8.98 0 l0 -14.16 l8.66 0 z M259.66800000000006 15.04 l6.5 0 l-3.2 -7.76 z M263.708 5.84 l5.96 14.16 l-1.48 0 l-1.54 -3.76 l-7.5 0 l-1.6 3.76 l-1.38 0 l6.18 -14.16 l1.36 0 z M283.252 5.84 l0 12.96 l6.6 0 l0 1.2 l-7.92 0 l0 -14.16 l1.32 0 z M311.456 5.84 l0 1.2 l-4.84 0 l0 12.96 l-1.32 0 l0 -12.96 l-4.84 0 l0 -1.2 l11 0 z M325.18 5.84 l0 6.24 l7.92 0 l0 -6.24 l1.32 0 l0 14.16 l-1.32 0 l0 -6.72 l-7.92 0 l0 6.72 l-1.32 0 l0 -14.16 l1.32 0 z"/></g>
			</g>
		</svg>
	